<svg width="120" height="120" viewBox="0 0 120 120" fill="none" xmlns="http://www.w3.org/2000/svg">
<g clip-path="url(#clip0_210_65)">
<path d="M103.57 74.8118H80.625C74.4141 74.8118 69.375 80.0634 69.375 86.2762C69.375 87.0733 69.4688 87.847 69.6094 88.5972C70.125 90.9886 71.1328 93.0986 72.1641 95.6072C73.5703 98.8425 75 102.054 75 105.454C75 112.933 69.9375 119.685 62.4844 119.99C63.3047 119.99 61.6641 120.013 62.4844 119.99C29.3438 119.99 0 93.1689 0 60.0182C0 26.8675 26.8594 0 60 0C93.1406 0 120 26.8675 120 60.0182C120 60.2292 119.789 60.4402 119.789 60.6512C119.906 69.2085 112.125 75.0228 103.57 75.0228V74.8118Z" fill="#1D1F23"/>
<path d="M60 3.53906C91.0547 3.53906 116.25 28.9453 116.25 59.7891C116.391 65.7188 110.695 71.0391 103.57 71.0391H80.625C72.3516 71.0391 65.625 77.9766 65.625 86.25C65.625 87.3047 65.7422 88.1484 65.9531 89.3438C66.5257 92.0922 67.7026 94.7734 68.6964 97.0376L68.7656 97.1953C69.9375 99.9609 71.25 103.148 71.25 105.422C71.25 111.422 67.2891 115.992 62.3203 116.203C31.2656 116.203 3.75 91.0547 3.75 59.7891C3.75 28.9453 28.9453 3.53906 60 3.53906Z" fill="#282C33"/>
<path d="M24.7635 62.6184C31.2102 62.6184 36.4363 57.3923 36.4363 50.9457C36.4363 44.499 31.2102 39.2729 24.7635 39.2729C18.3169 39.2729 13.0908 44.499 13.0908 50.9457C13.0908 57.3923 18.3169 62.6184 24.7635 62.6184Z" fill="#56B6C2"/>
<path d="M32.4003 93.1638C38.8469 93.1638 44.073 87.9378 44.073 81.4911C44.073 75.0444 38.8469 69.8184 32.4003 69.8184C25.9536 69.8184 20.7275 75.0444 20.7275 81.4911C20.7275 87.9378 25.9536 93.1638 32.4003 93.1638Z" fill="#F36379"/>
<path d="M52.3638 106.909C55.9788 106.909 58.9093 103.979 58.9093 100.364C58.9093 96.7489 55.9788 93.8184 52.3638 93.8184C48.7489 93.8184 45.8184 96.7489 45.8184 100.364C45.8184 103.979 48.7489 106.909 52.3638 106.909Z" fill="#F0CEEB"/>
<path d="M58.5819 66.9817C65.0286 66.9817 70.2546 61.7556 70.2546 55.309C70.2546 48.8623 65.0286 43.6362 58.5819 43.6362C52.1352 43.6362 46.9092 48.8623 46.9092 55.309C46.9092 61.7556 52.1352 66.9817 58.5819 66.9817Z" fill="#A9DC76"/>
<path d="M42.2186 37.5271C48.6653 37.5271 53.8913 32.301 53.8913 25.8544C53.8913 19.4077 48.6653 14.1816 42.2186 14.1816C35.772 14.1816 30.5459 19.4077 30.5459 25.8544C30.5459 32.301 35.772 37.5271 42.2186 37.5271Z" fill="#AB9DF2"/>
<path d="M74.9452 37.5271C81.3919 37.5271 86.6179 32.301 86.6179 25.8544C86.6179 19.4077 81.3919 14.1816 74.9452 14.1816C68.4985 14.1816 63.2725 19.4077 63.2725 25.8544C63.2725 32.301 68.4985 37.5271 74.9452 37.5271Z" fill="#F78C6C"/>
<path d="M95.6727 62.6184C102.119 62.6184 107.345 57.3923 107.345 50.9457C107.345 44.499 102.119 39.2729 95.6727 39.2729C89.2261 39.2729 84 44.499 84 50.9457C84 57.3923 89.2261 62.6184 95.6727 62.6184Z" fill="#E8D938"/>
</g>
</svg>
